<svg xmlns="http://www.w3.org/2000/svg" width="520" height="436" viewBox="0 0 520 436" role="img" aria-label="DGM archive lineage">
<rect width="100%" height="100%" fill="#ffffff"/>
<style>.node-label{font-family:Arial,sans-serif;font-size:13px;fill:#0f172a}.node-meta{font-family:Arial,sans-serif;font-size:11px;fill:#475569}.edge{stroke:#94a3b8;stroke-width:2;fill:none}</style>
<path class="edge" d="M260,112 C260,147 165,147 165,182"/>
<path class="edge" d="M260,112 C260,147 355,147 355,182"/>
<path class="edge" d="M165,254 C165,289 260,289 260,324"/>
<rect x="185" y="40" width="150" height="72" rx="8" fill="#ecfdf5" stroke="#10b981" stroke-width="2"/>
<text class="node-label" x="197" y="64">agent rootdemo</text>
<text class="node-meta" x="197" y="83">gen 0 | score 0.500</text>
<text class="node-meta" x="197" y="100">parent root</text>
<rect x="90" y="182" width="150" height="72" rx="8" fill="#ecfdf5" stroke="#10b981" stroke-width="2"/>
<text class="node-label" x="102" y="206">agent branchA1</text>
<text class="node-meta" x="102" y="225">gen 1 | score 0.720</text>
<text class="node-meta" x="102" y="242">parent rootdemo</text>
<rect x="280" y="182" width="150" height="72" rx="8" fill="#fef2f2" stroke="#ef4444" stroke-width="2"/>
<text class="node-label" x="292" y="206">agent branchB1</text>
<text class="node-meta" x="292" y="225">gen 1 | score 0.350</text>
<text class="node-meta" x="292" y="242">parent rootdemo</text>
<rect x="185" y="324" width="150" height="72" rx="8" fill="#ecfdf5" stroke="#10b981" stroke-width="2"/>
<text class="node-label" x="197" y="348">agent leafA101</text>
<text class="node-meta" x="197" y="367">gen 2 | score 0.810</text>
<text class="node-meta" x="197" y="384">parent branchA1</text>
</svg>